HIERARCHY
ROOT Hips
{
	OFFSET 0.00000 0.00000 0.00000
	CHANNELS 6 Xposition Yposition Zposition Zrotation Yrotation Xrotation 
	JOINT LHipJoint
	{
		OFFSET 0 0 0
		CHANNELS 3 Zrotation Yrotation Xrotation
		JOINT LeftUpLeg
		{
			OFFSET 1.80322 -1.53100 0.99595
			CHANNELS 3 Zrotation Yrotation Xrotation
			JOINT LeftLeg
			{
				OFFSET 2.25177 -6.18669 0.00000
				CHANNELS 3 Zrotation Yrotation Xrotation
				JOINT LeftFoot
				{
					OFFSET 2.26601 -6.22582 0.00000
					CHANNELS 3 Zrotation Yrotation Xrotation
					JOINT LeftToeBase
					{
						OFFSET 0.23701 -0.65119 2.15848
						CHANNELS 3 Zrotation Yrotation Xrotation
						End Site
						{
							OFFSET 0.00000 -0.00000 1.12949
						}
					}
				}
			}
		}
	}
	JOINT RHipJoint
	{
		OFFSET 0 0 0
		CHANNELS 3 Zrotation Yrotation Xrotation
		JOINT RightUpLeg
		{
			OFFSET -1.93977 -1.53100 0.99595
			CHANNELS 3 Zrotation Yrotation Xrotation
			JOINT RightLeg
			{
				OFFSET -2.28036 -6.26523 0.00000
				CHANNELS 3 Zrotation Yrotation Xrotation
				JOINT RightFoot
				{
					OFFSET -2.25490 -6.19528 0.00000
					CHANNELS 3 Zrotation Yrotation Xrotation
					JOINT RightToeBase
					{
						OFFSET -0.28375 -0.77960 2.23137
						CHANNELS 3 Zrotation Yrotation Xrotation
						End Site
						{
							OFFSET -0.00000 -0.00000 1.17899
						}
					}
				}
			}
		}
	}
	JOINT LowerBack
	{
		OFFSET 0 0 0
		CHANNELS 3 Zrotation Yrotation Xrotation
		JOINT Spine
		{
			OFFSET -0.00088 2.12090 -0.02806
			CHANNELS 3 Zrotation Yrotation Xrotation
			JOINT Spine1
			{
				OFFSET -0.00286 2.09666 0.12974
				CHANNELS 3 Zrotation Yrotation Xrotation
				JOINT Neck
				{
					OFFSET 0 0 0
					CHANNELS 3 Zrotation Yrotation Xrotation
					JOINT Neck1
					{
						OFFSET 0.07328 1.83526 0.07290
						CHANNELS 3 Zrotation Yrotation Xrotation
						JOINT Head
						{
							OFFSET -0.06683 1.74974 -0.49542
							CHANNELS 3 Zrotation Yrotation Xrotation
							End Site
							{
								OFFSET -0.03398 1.85163 -0.17573
							}
						}
					}
				}
				JOINT LeftShoulder
				{
					OFFSET 0 0 0
					CHANNELS 3 Zrotation Yrotation Xrotation
					JOINT LeftArm
					{
						OFFSET 3.02113 1.18018 0.40602
						CHANNELS 3 Zrotation Yrotation Xrotation
						JOINT LeftForeArm
						{
							OFFSET 4.58538 -0.00000 -0.00000
							CHANNELS 3 Zrotation Yrotation Xrotation
							JOINT LeftHand
							{
								OFFSET 2.68935 -0.00000 -0.00000
								CHANNELS 3 Zrotation Yrotation Xrotation
								JOINT LeftFingerBase
								{
									OFFSET 0 0 0
									CHANNELS 3 Zrotation Yrotation Xrotation
									JOINT LeftHandIndex1
									{
										OFFSET 0.58506 -0.00000 -0.00000
										CHANNELS 3 Zrotation Yrotation Xrotation
										End Site
										{
											OFFSET 0.47169 -0.00000 -0.00000
										}
									}
								}
								JOINT LThumb
								{
									OFFSET 0 0 0
									CHANNELS 3 Zrotation Yrotation Xrotation
									End Site
									{
										OFFSET 0.47889 -0.00000 0.47889
									}
								}
							}
						}
					}
				}
				JOINT RightShoulder
				{
					OFFSET 0 0 0
					CHANNELS 3 Zrotation Yrotation Xrotation
					JOINT RightArm
					{
						OFFSET -2.95074 1.18843 0.31430
						CHANNELS 3 Zrotation Yrotation Xrotation
						JOINT RightForeArm
						{
							OFFSET -4.47450 -0.00000 -0.00000
							CHANNELS 3 Zrotation Yrotation Xrotation
							JOINT RightHand
							{
								OFFSET -2.93896 -0.00000 -0.00000
								CHANNELS 3 Zrotation Yrotation Xrotation
								JOINT RightFingerBase
								{
									OFFSET 0 0 0
									CHANNELS 3 Zrotation Yrotation Xrotation
									JOINT RightHandIndex1
									{
										OFFSET -0.40509 -0.00000 -0.00000
										CHANNELS 3 Zrotation Yrotation Xrotation
										End Site
										{
											OFFSET -0.32660 -0.00000 -0.00000
										}
									}
								}
								JOINT RThumb
								{
									OFFSET 0 0 0
									CHANNELS 3 Zrotation Yrotation Xrotation
									End Site
									{
										OFFSET -0.33158 -0.00000 0.33158
									}
								}
							}
						}
					}
				}
			}
		}
	}
}
MOTION
Frames: 6
Frame Time: .0083333
-0.7522 15.6231 -6.0701 0 0 0 0 0 0 -21 0 0 0 0 0 0 0 0 0 0 0 0 0 0 21 0 0 0 0 0 0 0 0 0 0 0 0 0 0 0 0 0 0 0 0 0 0 -16 0 0 21 0 0 11 0 0 0 -8 0 0 0 0 0 0 0 0 0 0 0 0 0 0 0 0 0 0 0 0 8 0 0 0 0 0 0 0 0 0 0 0 0 0 0 0 0 0
-0.7522 15.6231 -6.0701 -3.8840 -2.0348 11.9926 0.0000 0.0000 0.0000 -13.2538 -17.2417 -19.6700 3.3361 11.2202 33.0261 1.1674 8.3737 -25.0341 0.0083 0.5896 1.6203 0.0000 0.0000 0.0000 26.2406 10.1851 -16.7587 -2.0023 -8.8710 25.3925 -0.8483 -6.7046 -21.0824 -0.0378 -1.2553 3.4516 6.6937 -1.1877 -6.1270 1.1611 -1.7247 -8.1495 -2.5486 -1.2056 -5.2554 1.2518 -2.9940 -15.4797 -4.7194 -3.3120 34.9383 -2.7249 -1.9675 14.4955 -0.0000 0.0000 0.0000 -89.6673 17.3063 26.4046 21.7211 -32.6604 -6.4347 -0.0000 -0.0000 8.6197 3.3743 16.9341 0.9839 -7.1250 0.0000 -0.0000 -22.7564 45.6198 -0.3673 -0.0000 0.0000 0.0000 81.2573 -7.1139 27.0875 -12.3701 20.3573 -2.2294 0.0000 0.0000 20.0331 -9.1269 -7.0671 1.1324 7.1250 -0.0000 -0.0000 14.8609 -36.7662 3.0940
-0.7451 15.6186 -6.0539 -3.9027 -2.0674 11.9368 0.0000 0.0000 0.0000 -13.3529 -17.1082 -19.3647 3.2721 11.1230 32.6958 1.1801 8.3306 -25.1021 0.0098 0.6397 1.7579 0.0000 0.0000 0.0000 26.2347 10.3213 -16.5914 -2.0089 -8.8846 25.4350 -0.8541 -6.8082 -21.2120 -0.0468 -1.3959 3.8388 6.6766 -1.1643 -6.3037 1.1912 -1.7038 -8.2112 -2.5110 -1.1937 -5.2185 1.1347 -2.8946 -14.9221 -4.5948 -3.1678 34.7021 -2.6026 -1.9049 14.2731 -0.0000 -0.0000 0.0000 -89.6234 17.3647 26.0939 21.3465 -32.2306 -6.2337 -0.0000 -0.0000 9.0829 3.2932 16.6634 0.9453 -7.1250 0.0000 -0.0000 -22.7168 45.3606 -0.2134 -0.0000 -0.0000 0.0000 81.1914 -7.3044 27.2544 -12.5290 20.5932 -2.2849 0.0000 0.0000 19.4689 -9.1145 -7.1985 1.1517 7.1250 -0.0000 -0.0000 14.8990 -36.8938 3.0544
-0.7358 15.6154 -6.0374 -3.9692 -2.0758 11.8542 0.0000 0.0000 0.0000 -13.4005 -17.0567 -19.0381 3.2272 11.0541 32.4625 1.1917 8.3715 -25.2225 0.0096 0.6332 1.7399 0.0000 0.0000 0.0000 26.2972 10.2601 -16.4146 -2.0026 -8.8714 25.3940 -0.8581 -6.8105 -21.2508 -0.0383 -1.2632 3.4734 6.7169 -1.1788 -6.4772 1.2304 -1.7369 -8.2211 -2.4974 -1.2092 -5.1355 1.2725 -2.7999 -14.8912 -4.6979 -3.0323 34.8292 -2.6522 -1.8420 14.3240 0.0000 -0.0000 0.0000 -89.5622 17.3240 25.7591 21.0172 -31.8484 -6.0590 -0.0000 -0.0000 9.3187 3.2440 16.6531 0.9306 -7.1250 0.0000 -0.0000 -22.7556 45.3451 -0.2046 0.0000 -0.0000 0.0000 81.1752 -7.3734 27.3750 -12.6761 20.8108 -2.3370 0.0000 0.0000 19.0540 -9.1827 -7.1792 1.1574 7.1250 -0.0000 -0.0000 14.8388 -36.8792 3.0468
-0.7268 15.6159 -6.0232 -3.9873 -2.0633 11.7652 0.0000 0.0000 0.0000 -13.4768 -17.0361 -18.7191 3.1828 10.9852 32.2300 1.1934 8.3888 -25.2485 0.0092 0.6178 1.6977 0.0000 0.0000 0.0000 26.3001 10.3496 -16.1925 -1.9988 -8.8636 25.3695 -0.8532 -6.9841 -21.3342 -0.0410 -1.3074 3.5950 6.6664 -1.2145 -6.5795 1.2835 -1.7881 -8.2586 -2.4166 -1.2306 -5.1187 1.3853 -2.7084 -14.8653 -4.8043 -2.8924 34.9495 -2.6981 -1.7810 14.3743 0.0000 -0.0000 0.0000 -89.5125 17.3086 25.3772 20.6613 -31.4309 -5.8723 -0.0000 -0.0000 9.6192 3.2659 16.6092 0.9345 -7.1250 0.0000 -0.0000 -22.7185 45.3073 -0.1819 0.0000 -0.0000 0.0000 81.1639 -7.4611 27.4137 -12.7948 20.9859 -2.3793 0.0000 0.0000 18.5966 -9.2349 -7.2126 1.1694 7.1250 -0.0000 -0.0000 14.8028 -36.9153 3.0255
-0.7180 15.6151 -6.0088 -3.9902 -2.0538 11.6761 0.0000 0.0000 0.0000 -13.5733 -16.9928 -18.4287 3.1446 10.9255 32.0291 1.2010 8.3765 -25.2982 0.0092 0.6198 1.7032 0.0000 0.0000 0.0000 26.2903 10.4148 -15.9750 -1.9939 -8.8534 25.3378 -0.8495 -7.1332 -21.4115 -0.0414 -1.3125 3.6091 6.6112 -1.2437 -6.7024 1.3239 -1.8328 -8.2900 -2.3472 -1.2484 -5.0835 1.4653 -2.6187 -14.7613 -4.8679 -2.7595 35.0130 -2.7171 -1.7215 14.3827 -0.0000 0.0000 0.0000 -89.4613 17.2943 24.9827 20.3144 -31.0192 -5.6925 -0.0000 -0.0000 9.9583 3.2476 16.5694 0.9270 -7.1250 0.0000 -0.0000 -22.7185 45.2684 -0.1589 -0.0000 0.0000 0.0000 81.1585 -7.5568 27.4423 -12.9148 21.1623 -2.4225 0.0000 0.0000 18.2092 -9.2359 -7.3233 1.1874 7.1250 -0.0000 -0.0000 14.8255 -37.0236 2.9899
